# xmcd
#
# Track frame offsets: 
#        150
#        17808
#        37581
#        64600
#        98449
#        118824
#        136052
#        168203
#        193741
#        216271
#        233955
#        260782
#        276631
#
# Disc length: 4130 seconds
#
# Revision: 0
# Processed by: cddbd v1.5.2PL0 Copyright (c) Steve Scherf et al.
# Submitted via: ExactAudioCopy v1.3
#
DISCID=b710200d
DTITLE=Godboogie - Play Music and Dance
DYEAR=2017
DGENRE=blues
TTITLE0=Play Music and Dance
TTITLE1=Honey Badger
TTITLE2=Wounded
TTITLE3=It's A Party
TTITLE4=Kitty
TTITLE5=So Far Away
TTITLE6=Sign Of The Times
TTITLE7=Dragon King
TTITLE8=The Way To Heaven
TTITLE9=Real Dude
TTITLE10=Call On My Love
TTITLE11=Workshop
TTITLE12=Tigers, Horses, Kings and Queens
EXTD=
EXTT0=
EXTT1=
EXTT2=
EXTT3=
EXTT4=
EXTT5=
EXTT6=
EXTT7=
EXTT8=
EXTT9=
EXTT10=
EXTT11=
EXTT12=
PLAYORDER=
